Complete name                    : Brødre.mkv
Format                           : Matroska
File size                        : 1.88 GiB
Duration                         : 1h 52mn
Overall bit rate                 : 2 395 Kbps


Video
ID                               : 1
Format                           : AVC

Codec ID                         : V_MPEG4/ISO/AVC
Duration                         : 1h 52mn
Bit rate                         : 1 780 Kbps
Nominal bit rate                 : 1 804 Kbps
Width                            : 714 pixels
Height                           : 576 pixels
Display aspect ratio             : 16/9
Frame rate                       : 25.000 fps
Resolution                       : 24 bits
Colorimetry                      : 4:2:0
Scan type                        : Progressive
Bits/(Pixel*Frame)               : 0.173
Stream size                      : 1.39 GiB (74%)
Writing library                  : x264 core 79


Audio #1                          :Movie

Format                           : AC-3
Format/Info                      : Audio Coding 3
Codec ID                         : A_AC3
Duration                         : 1h 52mn
Bit rate mode                    : Constant
Bit rate                         : 448 Kbps
Channel(s)                       : 6 channels
Channel positions                : Front: L C R, Surround: L R, LFE
Sampling rate                    : 48.0 KHz
Stream size                      : 359 MiB (19%)
Language                         : Danish

Audio #2                         : Director & Film comments

Format                           : MPEG Audio
Format version                   : Version 1
Format profile                   : Layer 3
Codec ID                         : A_MPEG/L3
Codec ID/Hint                    : MP3
Duration                         : 1h 52mn
Bit rate mode                    : Constant
Bit rate                         : 112 Kbps
Channel(s)                       : 2 channels
Sampling rate                    : 48.0 KHz
Resolution                       : 16 bits
Stream size                      : 89.8 MiB (5%)
Writing library                  : LAME3.98
Language                         : Danish

Text #1
Language                         : Danish

Text #2
Language                         : Danish

Text #3
Language                         : Norwegian

Text #4
Language                         : Swedish

Text #5
Language                         : English

Text #6
Language                         : Spanish

Text #7
Language                         : English